HIERARCHY
ROOT Hips
{
  OFFSET 53.1446 56.0951 -2.62345
  CHANNELS 6 Xposition Yposition Zposition Zrotation Xrotation Yrotation
  JOINT spine
  {
    OFFSET 0 7.96568 0.458067
    CHANNELS 3 Zrotation Xrotation Yrotation
    JOINT spine1
    {
      OFFSET 0 10.2431 0
      CHANNELS 3 Zrotation Xrotation Yrotation
      JOINT spine2
      {
        OFFSET 0 9.81475 0
        CHANNELS 3 Zrotation Xrotation Yrotation
        JOINT Neck
        {
          OFFSET 0 25.1986 1.20138
          CHANNELS 3 Zrotation Xrotation Yrotation
          JOINT Head
          {
            OFFSET 0 7.61315 0
            CHANNELS 3 Zrotation Xrotation Yrotation
            End Site
            {
              OFFSET 0 18.4281 -6.07733
            }
          }
        }
        JOINT RightShoulder
        {
          OFFSET -4.1327 10.5992 -0.575451
          CHANNELS 3 Zrotation Xrotation Yrotation
          JOINT RightArm
          {
            OFFSET 0 13.9018 0
            CHANNELS 3 Zrotation Xrotation Yrotation
            JOINT RightArmRoll
            {
              OFFSET 0 7.01789 0
              CHANNELS 3 Zrotation Xrotation Yrotation
              JOINT RightForeArm
              {
                OFFSET 0 20.4406 0
                CHANNELS 3 Zrotation Xrotation Yrotation
                JOINT RightForeArmRoll
                {
                  OFFSET 0 7.87516 0
                  CHANNELS 3 Zrotation Xrotation Yrotation
                  JOINT RightHand
                  {
                    OFFSET 0 15.8037 0
                    CHANNELS 3 Zrotation Xrotation Yrotation
                    End Site
                    {
                      OFFSET 0 0 0
                    }
                  }
                }
              }
            }
          }
        }
        JOINT LeftShoulder
        {
          OFFSET 4.1327 10.5992 -0.575451
          CHANNELS 3 Zrotation Xrotation Yrotation
          JOINT LeftArm
          {
            OFFSET 0 13.9018 0
            CHANNELS 3 Zrotation Xrotation Yrotation
            JOINT LeftArmRoll
            {
              OFFSET 0 7.01789 0
              CHANNELS 3 Zrotation Xrotation Yrotation
              JOINT LeftForeArm
              {
                OFFSET 0 20.4406 0
                CHANNELS 3 Zrotation Xrotation Yrotation
                JOINT LeftForeArmRoll
                {
                  OFFSET 0 7.87516 0
                  CHANNELS 3 Zrotation Xrotation Yrotation
                  JOINT LeftHand
                  {
                    OFFSET 0 15.8037 0
                    CHANNELS 3 Zrotation Xrotation Yrotation
                    End Site
                    {
                      OFFSET 0 0 0
                    }
                  }
                }
              }
            }
          }
        }
      }
    }
  }
  JOINT RightUpLeg
  {
    OFFSET -7.06048 -1.2947 -1.0861
    CHANNELS 3 Zrotation Xrotation Yrotation
    JOINT RightUpLegRoll
    {
      OFFSET 0 18.5308 0
      CHANNELS 3 Zrotation Xrotation Yrotation
      JOINT RightLeg
      {
        OFFSET 0 -22.9476 0
        CHANNELS 3 Zrotation Xrotation Yrotation
        JOINT RightLegRoll
        {
          OFFSET 0 23.0226 0
          CHANNELS 3 Zrotation Xrotation Yrotation
          JOINT RightFoot
          {
            OFFSET 0 19.1625 0
            CHANNELS 3 Zrotation Xrotation Yrotation
            JOINT RightToeBase
            {
              OFFSET 0 16.0188 0
              CHANNELS 3 Zrotation Xrotation Yrotation
              End Site
              {
                OFFSET 0.00678979 7.75782 -0.894206
              }
            }
          }
        }
      }
    }
  }
  JOINT LeftUpLeg
  {
    OFFSET 7.06048 -1.2947 -1.0861
    CHANNELS 3 Zrotation Xrotation Yrotation
    JOINT LeftUpLegRoll
    {
      OFFSET 0 18.5309 0
      CHANNELS 3 Zrotation Xrotation Yrotation
      JOINT LeftLeg
      {
        OFFSET 0 22.9475 0
        CHANNELS 3 Zrotation Xrotation Yrotation
        JOINT LeftLegRoll
        {
          OFFSET 0 23.2355 0
          CHANNELS 3 Zrotation Xrotation Yrotation
          JOINT LeftFoot
          {
            OFFSET 0 18.9496 0
            CHANNELS 3 Zrotation Xrotation Yrotation
            JOINT LeftToeBase
            {
              OFFSET 0 16.0188 0
              CHANNELS 3 Zrotation Xrotation Yrotation
              End Site
              {
                OFFSET -0.0304289 7.75782 -0.894207
              }
            }
          }
        }
      }
    }
  }
}
MOTION
Frames: 12
Frame Time: 0.00208333
54.0316 96.9038 28.2294 -0.535039 -2.79154 0.0811666 -0.0946577 -1.22071 -0.22913 -0.198765 1.56178 -0.427223 -0.193798 3.20683 -0.424148 -5.54151 15.1687 1.28563 5.07462 20.1116 -0.689192 70.7378 -3.14139 -2.92605 107.157 24.9462 4.03194 -4.59674e-006 1.738e-006 9.3388e-007 7.18205 8.06373 -1.39941 3.19022e-006 -1.14987e-005 -2.99999 8.02928 -4.95144 0.69767 -61.9621 -6.83635 4.37069 -109.824 19.8045 11.2717 2.38035e-006 -2.89455e-007 1.17667e-006 -17.0901 18.2587 3.39309 2.08654e-005 -3.65538e-006 3 -8.02898 -4.95147 -0.6977 176.789 0.24718 2.03519 180 7.01505e-015 178.756 -179.866 8.12287 179.381 -7.77421e-007 -2.57607e-006 0.0502261 -18.2369 67.1206 18.8181 8.12879 25.2331 -3.48446 -173.204 1.53964 -2.59289 4.5067e-006 -1.99009e-005 -1.13281 -1.97758 -11.3285 0.117036 5.07691e-006 2.71053e-007 -0.244021 20.6685 70.0649 -21.4371 -8.12966 25.233 3.48483 
54.0364 96.9053 28.1847 -0.538388 -2.74933 0.053667 -0.0941677 -1.21889 -0.231225 -0.197549 1.56542 -0.433689 -0.192504 3.21047 -0.430639 -5.58715 15.1307 1.29118 5.10423 20.0777 -0.695509 70.7032 -3.13061 -2.91811 107.212 24.9518 4.00052 -4.59674e-006 1.738e-006 9.3388e-007 7.18438 8.04696 -1.39881 3.19022e-006 -1.14987e-005 -2.99999 8.02928 -4.95144 0.69767 -61.9558 -6.8556 4.38172 -109.818 19.7698 11.3205 2.38035e-006 -2.89455e-007 1.17667e-006 -17.1348 18.3199 3.40984 2.08654e-005 -3.65538e-006 3 -8.02898 -4.95147 -0.6977 176.798 0.333337 2.01539 180 7.01506e-015 178.757 -179.857 8.16205 179.379 -7.77421e-007 -2.57607e-006 0.05019 -18.2364 67.1199 18.8176 8.12879 25.2331 -3.48446 -173.203 1.60511 -2.59035 4.5067e-006 -1.99009e-005 -1.13231 -1.9772 -11.3522 0.116985 5.07691e-006 2.71053e-007 -0.244024 20.6679 70.0643 -21.4364 -8.12966 25.233 3.48483 
54.0163 96.9014 28.1712 -0.541705 -2.70644 0.0262607 -0.0937228 -1.21733 -0.23335 -0.196388 1.56853 -0.440312 -0.191262 3.21358 -0.437286 -5.63312 15.0933 1.2968 5.134 20.0435 -0.701892 70.6689 -3.11968 -2.91015 107.267 24.9573 3.96872 -4.59674e-006 1.738e-006 9.3388e-007 7.1872 8.0297 -1.3982 3.19022e-006 -1.14987e-005 -2.99999 8.02928 -4.95144 0.69767 -61.9491 -6.87532 4.39301 -109.812 19.7343 11.3691 2.38035e-006 -2.89455e-007 1.17667e-006 -17.1798 18.3819 3.42679 2.08654e-005 -3.65538e-006 3 -8.02898 -4.95147 -0.6977 176.807 0.420427 1.99562 180 7.01506e-015 178.758 -179.848 8.20164 179.376 -7.77421e-007 -2.57607e-006 0.050145 -18.236 67.1195 18.8172 8.12879 25.2331 -3.48446 -173.201 1.67096 -2.58764 4.5067e-006 -1.99009e-005 -1.13181 -1.97677 -11.3753 0.116922 5.07691e-006 2.71053e-007 -0.244008 20.6672 70.0636 -21.4357 -8.12966 25.233 3.48483 
54.0159 96.8998 28.1534 -0.544989 -2.66308 -0.00107969 -0.0933095 -1.21596 -0.235495 -0.195265 1.57128 -0.447046 -0.190057 3.21633 -0.444042 -5.67932 15.0562 1.30249 5.16389 20.0092 -0.708319 70.635 -3.10866 -2.90215 107.321 24.9627 3.93667 -4.59674e-006 1.738e-006 9.3388e-007 7.19037 8.01209 -1.39759 3.19022e-006 -1.14987e-005 -2.99999 8.02928 -4.95144 0.69767 -61.9421 -6.89535 4.40449 -109.806 19.6981 11.4178 2.38035e-006 -2.89455e-007 1.17667e-006 -17.2249 18.4447 3.44387 2.08654e-005 -3.65538e-006 3 -8.02898 -4.95147 -0.6977 176.817 0.50817 1.97588 180 7.01506e-015 178.759 -179.839 8.24156 179.374 -7.77421e-007 -2.57607e-006 0.0500939 -18.2357 67.1191 18.8168 8.12879 25.2331 -3.48446 -173.2 1.73706 -2.58481 4.5067e-006 -1.99009e-005 -1.13131 -1.97629 -11.3981 0.11685 5.07691e-006 2.71053e-007 -0.243979 20.6665 70.063 -21.4349 -8.12966 25.233 3.48483 
54.0171 96.8994 28.1363 -0.548234 -2.61944 -0.0283815 -0.0929141 -1.21469 -0.237652 -0.194163 1.57382 -0.453842 -0.188873 3.21887 -0.450861 -5.72565 15.0193 1.3082 5.19384 19.9748 -0.714772 70.6011 -3.09757 -2.89414 107.375 24.9682 3.90447 -4.59674e-006 1.738e-006 9.3388e-007 7.19374 7.99429 -1.39697 3.19022e-006 -1.14987e-005 -2.99999 8.02928 -4.95144 0.69767 -61.935 -6.91557 4.41607 -109.799 19.6615 11.4665 2.38035e-006 -2.89455e-007 1.17667e-006 -17.2702 18.5077 3.46105 2.08654e-005 -3.65538e-006 3 -8.02898 -4.95147 -0.6977 176.826 0.596287 1.95615 180 7.01507e-015 178.76 -179.83 8.28163 179.371 -7.77421e-007 -2.57607e-006 0.0500393 -18.2354 67.1187 18.8166 8.12879 25.2331 -3.48446 -173.199 1.80332 -2.58191 4.5067e-006 -1.99009e-005 -1.13082 -1.9758 -11.4207 0.116772 5.07691e-006 2.71053e-007 -0.243943 20.6658 70.0623 -21.4342 -8.12966 25.233 3.48483 
54.0103 96.8972 28.1156 -0.551439 -2.57575 -0.0556724 -0.0925231 -1.21345 -0.239812 -0.193066 1.57631 -0.460653 -0.187694 3.22136 -0.457695 -5.772 14.9824 1.31392 5.2238 19.9403 -0.721229 70.5673 -3.08647 -2.88613 107.429 24.9736 3.87222 -4.59674e-006 1.738e-006 9.3388e-007 7.19716 7.97644 -1.39636 3.19022e-006 -1.14987e-005 -2.99999 8.02928 -4.95144 0.69767 -61.9279 -6.93583 4.42768 -109.793 19.6249 11.5151 2.38035e-006 -2.89455e-007 1.17667e-006 -17.3155 18.5709 3.47825 2.08654e-005 -3.65538e-006 3 -8.02898 -4.95147 -0.6977 176.835 0.6845 1.93643 180 7.01507e-015 178.761 -179.821 8.32174 179.369 -7.77421e-007 -2.57607e-006 0.0499838 -18.2352 67.1184 18.8163 8.12879 25.2331 -3.48446 -173.198 1.86962 -2.57899 4.5067e-006 -1.99009e-005 -1.13033 -1.9753 -11.4433 0.116694 5.07691e-006 2.71053e-007 -0.243905 20.6651 70.0616 -21.4334 -8.12966 25.233 3.48483 
54.0177 96.9023 28.1087 -0.554601 -2.53218 -0.0829797 -0.092123 -1.21216 -0.241965 -0.191958 1.5789 -0.467434 -0.186503 3.22395 -0.464498 -5.81827 14.9455 1.31962 5.25372 19.9059 -0.72767 70.5335 -3.0754 -2.87813 107.483 24.979 3.84005 -4.59674e-006 1.738e-006 9.3388e-007 7.20048 7.95868 -1.39574 3.19022e-006 -1.14987e-005 -2.99999 8.02928 -4.95144 0.69767 -61.9208 -6.956 4.43924 -109.786 19.5884 11.5637 2.38035e-006 -2.89455e-007 1.17667e-006 -17.3608 18.6339 3.49544 2.08654e-005 -3.65538e-006 3 -8.02898 -4.95147 -0.6977 176.845 0.772528 1.9167 180 7.01507e-015 178.762 -179.813 8.36177 179.366 -7.77421e-007 -2.57607e-006 0.0499301 -18.2349 67.1181 18.816 8.12879 25.2331 -3.48446 -173.197 1.93585 -2.57612 4.5067e-006 -1.99009e-005 -1.12984 -1.97481 -11.4659 0.116618 5.07691e-006 2.71053e-007 -0.24387 20.6643 70.0609 -21.4326 -8.12966 25.233 3.48483 
54.0323 96.8882 28.0303 -0.557716 -2.48895 -0.110331 -0.0917002 -1.21073 -0.244105 -0.190821 1.58175 -0.474136 -0.185285 3.2268 -0.471224 -5.86437 14.9083 1.32528 5.28354 19.8716 -0.734074 70.4994 -3.06441 -2.87014 107.538 24.9845 3.80806 -4.59674e-006 1.738e-006 9.3388e-007 7.20355 7.94117 -1.39513 3.19022e-006 -1.14987e-005 -2.99999 8.02928 -4.95144 0.69767 -61.9139 -6.97594 4.45067 -109.78 19.5524 11.6123 2.38035e-006 -2.89455e-007 1.17667e-006 -17.4061 18.6964 3.51256 2.08654e-005 -3.65538e-006 3 -8.02898 -4.95147 -0.6977 176.854 0.860093 1.89697 180 7.01507e-015 178.763 -179.804 8.40159 179.364 -7.77421e-007 -2.57607e-006 0.0498808 -18.2346 67.1177 18.8156 8.12879 25.2331 -3.48446 -173.196 2.00188 -2.57333 4.5067e-006 -1.99009e-005 -1.12935 -1.97434 -11.4888 0.116548 5.07691e-006 2.71053e-007 -0.243845 20.6636 70.0602 -21.4319 -8.12966 25.233 3.48483 
54.0178 96.8843 28.0107 -0.560784 -2.44626 -0.137754 -0.091241 -1.2091 -0.246221 -0.189639 1.58503 -0.480712 -0.184024 3.23008 -0.477824 -5.91019 14.8707 1.33088 5.31321 19.8375 -0.740421 70.465 -3.05352 -2.86219 107.592 24.99 3.77635 -4.59674e-006 1.738e-006 9.3388e-007 7.20623 7.92406 -1.39453 3.19022e-006 -1.14987e-005 -2.99999 8.02928 -4.95144 0.69767 -61.9072 -6.99551 4.46189 -109.773 19.5171 11.6609 2.38035e-006 -2.89455e-007 1.17667e-006 -17.4512 18.7582 3.52955 2.08654e-005 -3.65538e-006 3 -8.02898 -4.95147 -0.6977 176.864 0.946915 1.87721 180 7.01508e-015 178.764 -179.794 8.44106 179.361 -7.77421e-007 -2.57607e-006 0.0498384 -18.2342 67.1171 18.8152 8.12879 25.2331 -3.48446 -173.195 2.06761 -2.5707 4.5067e-006 -1.99009e-005 -1.12885 -1.97392 -11.5121 0.116489 5.07691e-006 2.71053e-007 -0.243835 20.663 70.0596 -21.4312 -8.12966 25.233 3.48483 
54.0212 96.8891 27.9824 -0.563802 -2.40431 -0.165275 -0.090732 -1.20717 -0.248305 -0.188395 1.58888 -0.487116 -0.182702 3.23393 -0.484253 -5.95564 14.8325 1.33637 5.34268 19.8037 -0.74669 70.4303 -3.0428 -2.85427 107.647 24.9955 3.74506 -4.59674e-006 1.738e-006 9.3388e-007 7.20836 7.90749 -1.39393 3.19022e-006 -1.14987e-005 -2.99999 8.02928 -4.95144 0.69767 -61.9009 -7.01457 4.47283 -109.767 19.4828 11.7095 2.38035e-006 -2.89455e-007 1.17667e-006 -17.4962 18.819 3.54637 2.08654e-005 -3.65538e-006 3 -8.02898 -4.95147 -0.6977 176.873 1.03272 1.85742 180 7.01508e-015 178.765 -179.785 8.48005 179.359 -7.77421e-007 -2.57607e-006 0.0498058 -18.2337 67.1165 18.8146 8.12879 25.2331 -3.48446 -173.194 2.13293 -2.56826 4.5067e-006 -1.99009e-005 -1.12834 -1.97356 -11.5359 0.116443 5.07691e-006 2.71053e-007 -0.243844 20.6624 70.059 -21.4305 -8.12966 25.233 3.48483 
53.998 96.8791 27.9432 -0.566769 -2.3633 -0.192923 -0.0901595 -1.20488 -0.250348 -0.187071 1.59346 -0.4933 -0.181304 3.23851 -0.490464 -6.0006 14.7937 1.34176 5.3719 19.7701 -0.752862 70.395 -3.03228 -2.8464 107.702 25.0011 3.71427 -4.59674e-006 1.738e-006 9.3388e-007 7.20981 7.89161 -1.39333 3.19022e-006 -1.14987e-005 -2.99999 8.02928 -4.95144 0.69767 -61.8951 -7.03298 4.48341 -109.76 19.4498 11.7581 2.38035e-006 -2.89455e-007 1.17667e-006 -17.5409 18.8785 3.56294 2.08654e-005 -3.65538e-006 3 -8.02898 -4.95147 -0.6977 176.883 1.11722 1.8376 180 7.01508e-015 178.766 -179.776 8.51844 179.356 -7.77421e-007 -2.57607e-006 0.0497854 -18.233 67.1156 18.8139 8.12879 25.2331 -3.48446 -173.192 2.19772 -2.56607 4.5067e-006 -1.99009e-005 -1.12782 -1.97328 -11.5605 0.116415 5.07691e-006 2.71053e-007 -0.24388 20.6618 70.0584 -21.4299 -8.12966 25.233 3.48483 
53.9938 96.8807 27.93 -0.569684 -2.32344 -0.220725 -0.0895098 -1.20214 -0.252341 -0.185653 1.59894 -0.499218 -0.179813 3.24399 -0.49641 -6.04499 14.754 1.34699 5.40081 19.7369 -0.758915 70.3591 -3.02201 -2.8386 107.758 25.0067 3.6841 -4.59674e-006 1.738e-006 9.3388e-007 7.21041 7.87657 -1.39275 3.19022e-006 -1.14987e-005 -2.99999 8.02928 -4.95144 0.69767 -61.8898 -7.0506 4.49356 -109.754 19.4183 11.8067 2.38035e-006 -2.89455e-007 1.17667e-006 -17.5854 18.9366 3.57923 2.08654e-005 -3.65538e-006 3 -8.02898 -4.95147 -0.6977 176.893 1.20013 1.81773 180 7.01508e-015 178.767 -179.766 8.55609 179.354 -7.77421e-007 -2.57607e-006 0.0497799 -18.2322 67.1145 18.813 8.12879 25.2331 -3.48446 -173.191 2.26187 -2.56419 4.5067e-006 -1.99009e-005 -1.12729 -1.97308 -11.586 0.116408 5.07691e-006 2.71053e-007 -0.243947 20.6613 70.058 -21.4294 -8.12966 25.233 3.48483 
